<svg width="184" height="58" viewBox="0 0 184 58" fill="none" xmlns="http://www.w3.org/2000/svg">
<mask id="path-1-inside-1_1358_378" fill="white">
<path fill-rule="evenodd" clip-rule="evenodd" d="M8 0H170.003C169.997 0.163932 169.994 0.32858 169.994 0.493896C169.994 8.22917 176.265 14.4999 184 14.5V43.9939C176.265 43.994 169.994 50.2647 169.994 58H8C3.58172 58 0 54.4183 0 50V8C0 3.58172 3.58172 0 8 0Z"/>
</mask>
<path fill-rule="evenodd" clip-rule="evenodd" d="M8 0H170.003C169.997 0.163932 169.994 0.32858 169.994 0.493896C169.994 8.22917 176.265 14.4999 184 14.5V43.9939C176.265 43.994 169.994 50.2647 169.994 58H8C3.58172 58 0 54.4183 0 50V8C0 3.58172 3.58172 0 8 0Z" fill="#FAFAFA"/>
<path d="M170.003 0L171.002 0.034605L171.038 -1H170.003V0ZM184 14.5H185V13.5L184 13.5L184 14.5ZM184 43.9939L184 44.9939L185 44.9939V43.9939H184ZM169.994 58V59H170.994V58H169.994ZM170.003 -1H8V1H170.003V-1ZM170.994 0.493896C170.994 0.340149 170.997 0.187038 171.002 0.034605L169.003 -0.034605C168.997 0.140826 168.994 0.31701 168.994 0.493896H170.994ZM184 13.5C176.817 13.4999 170.994 7.67689 170.994 0.493896H168.994C168.994 8.78145 175.712 15.4999 184 15.5L184 13.5ZM185 43.9939V14.5H183V43.9939H185ZM170.994 58C170.994 50.817 176.817 44.994 184 44.9939L184 42.9939C175.712 42.994 168.994 49.7124 168.994 58H170.994ZM8 59H169.994V57H8V59ZM-1 50C-1 54.9706 3.02944 59 8 59V57C4.13401 57 1 53.866 1 50H-1ZM-1 8V50H1V8H-1ZM8 -1C3.02944 -1 -1 3.02944 -1 8H1C1 4.13401 4.13401 1 8 1V-1Z" fill="#D9D9D9" mask="url(#path-1-inside-1_1358_378)"/>
</svg>
