<svg width="25" height="24" viewBox="0 0 25 24" fill="none" xmlns="http://www.w3.org/2000/svg">
<path d="M12.6599 2.20898C10.7376 2.20898 8.85841 2.7704 7.26005 3.82222C5.6617 4.87405 4.41593 6.36905 3.68028 8.11818C2.94464 9.8673 2.75216 11.792 3.12719 13.6489C3.50222 15.5057 4.42791 17.2113 5.7872 18.5501C7.14649 19.8888 8.87833 20.8005 10.7637 21.1698C12.6491 21.5392 14.6034 21.3496 16.3794 20.6251C18.1554 19.9006 19.6734 18.6737 20.7413 17.0995C21.8093 15.5253 22.3794 13.6746 22.3794 11.7814C22.3766 9.24344 21.3518 6.81022 19.5296 5.01563C17.7074 3.22104 15.2368 2.21166 12.6599 2.20898ZM13.4076 19.847V13.9904H15.6505C15.8488 13.9904 16.039 13.9128 16.1792 13.7747C16.3194 13.6366 16.3982 13.4493 16.3982 13.254C16.3982 13.0588 16.3194 12.8715 16.1792 12.7334C16.039 12.5953 15.8488 12.5177 15.6505 12.5177H13.4076V10.3087C13.4076 9.91812 13.5651 9.54354 13.8455 9.26736C14.1259 8.99118 14.5063 8.83602 14.9029 8.83602H16.3982C16.5964 8.83602 16.7866 8.75844 16.9268 8.62035C17.067 8.48226 17.1458 8.29497 17.1458 8.09968C17.1458 7.9044 17.067 7.71711 16.9268 7.57902C16.7866 7.44093 16.5964 7.36335 16.3982 7.36335H14.9029C14.1097 7.36335 13.349 7.67366 12.7882 8.22602C12.2273 8.77838 11.9122 9.52754 11.9122 10.3087V12.5177H9.6693C9.47101 12.5177 9.28084 12.5953 9.14063 12.7334C9.00041 12.8715 8.92164 13.0588 8.92164 13.254C8.92164 13.4493 9.00041 13.6366 9.14063 13.7747C9.28084 13.9128 9.47101 13.9904 9.6693 13.9904H11.9122V19.847C9.80462 19.6575 7.85228 18.6751 6.46135 17.1041C5.07041 15.5331 4.34795 13.4945 4.44425 11.4123C4.54055 9.33009 5.4482 7.36459 6.97838 5.92464C8.50857 4.48469 10.5435 3.68114 12.6599 3.68114C14.7763 3.68114 16.8112 4.48469 18.3414 5.92464C19.8716 7.36459 20.7792 9.33009 20.8755 11.4123C20.9718 13.4945 20.2494 15.5331 18.8585 17.1041C17.4675 18.6751 15.5152 19.6575 13.4076 19.847Z" fill="#23387A"/>
</svg>
