<svg width="25" height="24" viewBox="0 0 25 24" fill="none" xmlns="http://www.w3.org/2000/svg">
<path d="M12.7849 7.80085C11.8977 7.80085 11.0304 8.05996 10.2927 8.54542C9.55496 9.03088 8.97999 9.72088 8.64046 10.5282C8.30093 11.3355 8.2121 12.2238 8.38518 13.0808C8.55827 13.9378 8.98552 14.725 9.61288 15.3429C10.2402 15.9608 11.0396 16.3815 11.9097 16.552C12.7799 16.7225 13.6819 16.635 14.5016 16.3006C15.3213 15.9662 16.0219 15.3999 16.5148 14.6734C17.0077 13.9469 17.2708 13.0927 17.2708 12.2189C17.2696 11.0475 16.7966 9.92448 15.9555 9.0962C15.1145 8.26793 13.9743 7.80207 12.7849 7.80085ZM12.7849 15.1642C12.1934 15.1642 11.6152 14.9915 11.1234 14.6678C10.6316 14.3442 10.2483 13.8842 10.0219 13.346C9.79559 12.8078 9.73636 12.2156 9.85176 11.6443C9.96715 11.0729 10.252 10.5481 10.6702 10.1362C11.0885 9.72428 11.6213 9.44376 12.2015 9.33012C12.7816 9.21647 13.3829 9.2748 13.9294 9.49772C14.4758 9.72065 14.9429 10.0982 15.2715 10.5825C15.6001 11.0669 15.7755 11.6363 15.7755 12.2189C15.7755 13 15.4604 13.7492 14.8996 14.3015C14.3387 14.8539 13.5781 15.1642 12.7849 15.1642ZM17.2708 2.64648H8.29899C6.91142 2.64795 5.5811 3.19146 4.59994 4.15778C3.61878 5.12409 3.06691 6.43427 3.06543 7.80085V16.6369C3.06691 18.0035 3.61878 19.3137 4.59994 20.28C5.5811 21.2463 6.91142 21.7898 8.29899 21.7913H17.2708C18.6584 21.7898 19.9887 21.2463 20.9699 20.28C21.951 19.3137 22.5029 18.0035 22.5044 16.6369V7.80085C22.5029 6.43427 21.951 5.12409 20.9699 4.15778C19.9887 3.19146 18.6584 2.64795 17.2708 2.64648ZM21.0091 16.6369C21.0091 17.6133 20.6152 18.5498 19.9142 19.2402C19.2131 19.9307 18.2623 20.3186 17.2708 20.3186H8.29899C7.30754 20.3186 6.3567 19.9307 5.65564 19.2402C4.95458 18.5498 4.56073 17.6133 4.56073 16.6369V7.80085C4.56073 6.8244 4.95458 5.88795 5.65564 5.1975C6.3567 4.50705 7.30754 4.11916 8.29899 4.11916H17.2708C18.2623 4.11916 19.2131 4.50705 19.9142 5.1975C20.6152 5.88795 21.0091 6.8244 21.0091 7.80085V16.6369ZM18.7661 7.43268C18.7661 7.65113 18.7003 7.86467 18.5771 8.04631C18.4539 8.22794 18.2787 8.36951 18.0738 8.45311C17.8689 8.53671 17.6434 8.55858 17.4258 8.51596C17.2083 8.47334 17.0085 8.36815 16.8516 8.21368C16.6948 8.05921 16.588 7.86241 16.5447 7.64816C16.5014 7.4339 16.5236 7.21182 16.6085 7.01C16.6934 6.80818 16.8371 6.63568 17.0216 6.51431C17.206 6.39295 17.4228 6.32817 17.6446 6.32817C17.9421 6.32817 18.2273 6.44454 18.4376 6.65167C18.648 6.85881 18.7661 7.13975 18.7661 7.43268Z" fill="#23387A"/>
</svg>
