<svg width="23" height="22" viewBox="0 0 23 22" fill="none" xmlns="http://www.w3.org/2000/svg">
<path d="M9.92857 6.51852C9.92857 6.19621 10.0207 5.88114 10.1934 5.61314C10.3661 5.34515 10.6115 5.13628 10.8986 5.01294C11.1858 4.88959 11.5017 4.85732 11.8066 4.9202C12.1114 4.98308 12.3914 5.13829 12.6112 5.3662C12.8309 5.5941 12.9806 5.88448 13.0412 6.20059C13.1019 6.51671 13.0707 6.84437 12.9518 7.14215C12.8329 7.43993 12.6315 7.69444 12.373 7.87351C12.1146 8.05257 11.8108 8.14815 11.5 8.14815C11.0832 8.14815 10.6835 7.97646 10.3888 7.67084C10.0941 7.36523 9.92857 6.95072 9.92857 6.51852ZM5.21429 6.51852C5.21429 4.7897 5.87653 3.13169 7.05533 1.90923C8.23413 0.686771 9.83292 0 11.5 0C13.1671 0 14.7659 0.686771 15.9447 1.90923C17.1235 3.13169 17.7857 4.7897 17.7857 6.51852C17.7857 12.6245 12.1305 16.0457 11.8929 16.1894C11.7741 16.2597 11.6397 16.2968 11.5029 16.2968C11.3662 16.2968 11.2318 16.2597 11.113 16.1894C10.8695 16.0457 5.21429 12.6296 5.21429 6.51852ZM6.78571 6.51852C6.78571 10.8167 10.3057 13.6695 11.5 14.5139C12.6933 13.6706 16.2143 10.8167 16.2143 6.51852C16.2143 5.2219 15.7176 3.9784 14.8335 3.06155C13.9494 2.14471 12.7503 1.62963 11.5 1.62963C10.2497 1.62963 9.0506 2.14471 8.1665 3.06155C7.2824 3.9784 6.78571 5.2219 6.78571 6.51852ZM18.8435 13.4068C18.6501 13.3405 18.4395 13.3547 18.256 13.4464C18.0725 13.5381 17.9305 13.7 17.86 13.8981C17.7894 14.0963 17.7958 14.3151 17.8778 14.5084C17.9597 14.7018 18.1109 14.8545 18.2994 14.9345C19.9209 15.5569 20.9286 16.39 20.9286 17.1111C20.9286 18.4719 17.3418 20.3704 11.5 20.3704C5.65821 20.3704 2.07143 18.4719 2.07143 17.1111C2.07143 16.39 3.07911 15.5569 4.70062 14.9356C4.88911 14.8555 5.04027 14.7028 5.12225 14.5094C5.20422 14.3161 5.2106 14.0973 5.14004 13.8992C5.06948 13.701 4.92749 13.5391 4.74401 13.4474C4.56053 13.3557 4.3499 13.3415 4.15652 13.4078C1.79839 14.3092 0.5 15.6251 0.5 17.1111C0.5 20.2869 6.16795 22 11.5 22C16.8321 22 22.5 20.2869 22.5 17.1111C22.5 15.6251 21.2016 14.3092 18.8435 13.4068Z" fill="#23387A"/>
</svg>
