<svg width="25" height="24" viewBox="0 0 25 24" fill="none" xmlns="http://www.w3.org/2000/svg">
<path d="M21.4347 10.3086C21.4347 12.386 20.6964 14.2848 19.3571 15.6572C18.1067 16.9356 16.4114 17.672 14.7058 17.672C13.0348 17.672 11.9189 17.1326 11.2077 16.5675L10.2003 20.7848C10.1619 20.9467 10.0691 21.0909 9.93688 21.1942C9.80471 21.2975 9.64095 21.3537 9.47224 21.3537C9.41436 21.3536 9.35668 21.3471 9.30028 21.3343C9.20432 21.3126 9.11366 21.2725 9.0335 21.2162C8.95334 21.1599 8.88525 21.0886 8.83315 21.0063C8.78105 20.9241 8.74596 20.8325 8.72989 20.7368C8.71383 20.6411 8.71711 20.5433 8.73954 20.4489L11.7301 7.93115C11.7755 7.74099 11.8957 7.57636 12.0643 7.47349C12.2329 7.37061 12.4361 7.33791 12.6292 7.38258C12.8223 7.42726 12.9894 7.54564 13.0939 7.71169C13.1984 7.87775 13.2316 8.07787 13.1862 8.26803L11.6068 14.8767C11.9021 15.2789 12.7712 16.1993 14.7058 16.1993C17.2787 16.1993 19.9394 13.9958 19.9394 10.3086C19.939 9.29233 19.7012 8.28977 19.2446 7.37843C18.7879 6.46709 18.1246 5.6714 17.3058 5.05288C16.487 4.43436 15.5348 4.00958 14.5227 3.81139C13.5107 3.6132 12.4659 3.64691 11.4691 3.90991C10.4724 4.17291 9.55044 4.65815 8.77453 5.32812C7.99863 5.9981 7.38957 6.83484 6.99445 7.77366C6.59934 8.71248 6.42875 9.72822 6.49589 10.7423C6.56302 11.7565 6.86608 12.7418 7.38162 13.6221C7.47461 13.7908 7.49707 13.9886 7.44419 14.1733C7.39132 14.358 7.26729 14.5151 7.09854 14.6111C6.92979 14.7071 6.72965 14.7344 6.54075 14.6872C6.35185 14.64 6.18913 14.5221 6.08725 14.3585C5.45682 13.2825 5.08613 12.0781 5.00385 10.8385C4.92156 9.59892 5.1299 8.35729 5.61273 7.20965C6.09556 6.06201 6.83996 5.03913 7.78834 4.22012C8.73672 3.40111 9.86367 2.80791 11.082 2.48641C12.3004 2.16491 13.5775 2.12372 14.8147 2.36602C16.0518 2.60833 17.2157 3.12764 18.2165 3.88379C19.2172 4.63994 20.028 5.61266 20.586 6.72673C21.144 7.8408 21.4344 9.06635 21.4347 10.3086Z" fill="#23387A"/>
</svg>
