<svg width="25" height="24" viewBox="0 0 25 24" fill="none" xmlns="http://www.w3.org/2000/svg">
<path d="M20.6452 19.704L14.7948 10.6489L20.5676 4.39461C20.6981 4.24967 20.7654 4.05988 20.7549 3.8664C20.7443 3.67292 20.6567 3.49134 20.5111 3.36103C20.3655 3.23072 20.1737 3.16217 19.9771 3.17026C19.7805 3.17835 19.5951 3.26242 19.4611 3.40424L13.9621 9.36121L10.178 3.50456C10.1106 3.39996 10.0174 3.31382 9.9071 3.25413C9.79682 3.19444 9.67304 3.16312 9.54721 3.16309H5.0613C4.92724 3.16302 4.79564 3.19846 4.68026 3.26568C4.56489 3.3329 4.46999 3.42943 4.40549 3.54517C4.341 3.66091 4.30929 3.7916 4.31368 3.92356C4.31808 4.05551 4.35841 4.18387 4.43047 4.2952L10.2808 13.3494L4.50804 19.6083C4.44062 19.6796 4.38825 19.7634 4.35396 19.8548C4.31967 19.9462 4.30414 20.0434 4.30827 20.1407C4.3124 20.2381 4.33611 20.3337 4.37802 20.4219C4.41993 20.5102 4.47922 20.5894 4.55244 20.6549C4.62566 20.7204 4.71135 20.771 4.80456 20.8037C4.89777 20.8364 4.99664 20.8505 5.09543 20.8453C5.19423 20.84 5.29098 20.8155 5.3801 20.7732C5.46921 20.7309 5.5489 20.6715 5.61456 20.5986L11.1135 14.6417L14.8976 20.4983C14.9656 20.6021 15.059 20.6873 15.1693 20.7462C15.2795 20.805 15.403 20.8356 15.5284 20.8352H20.0143C20.1482 20.8351 20.2797 20.7997 20.3949 20.7325C20.5101 20.6653 20.6049 20.5689 20.6694 20.4533C20.7339 20.3377 20.7656 20.2072 20.7614 20.0754C20.7571 19.9436 20.717 19.8153 20.6452 19.704ZM15.9387 19.3625L6.42296 4.63576H9.13319L18.6527 19.3625H15.9387Z" fill="#23387A"/>
</svg>
